<svg xmlns="http://www.w3.org/2000/svg" width="100%" height="100%" viewBox="0 0 100 100" fill-rule="evenodd" stroke-linejoin="round" stroke-miterlimit="2"><path d="M0-118.274c-33.347 0-60.388 27.035-60.388 60.388 0 26.68 17.303 49.316 41.297 57.3 3.018.56 4.126-1.3 4.126-2.905l-.082-11.243c-16.8 3.653-20.345-7.125-20.345-7.125-2.747-6.98-6.705-8.836-6.705-8.836-5.48-3.748.413-3.67.413-3.67 6.064.426 9.257 6.224 9.257 6.224 5.386 9.23 14.127 6.562 17.573 5.02.543-3.902 2.107-6.567 3.834-8.075-13.413-1.526-27.513-6.705-27.513-29.844 0-6.592 2.36-11.98 6.222-16.21-.627-1.52-2.694-7.663.586-15.98 0 0 5.07-1.622 16.6 6.19 4.817-1.338 9.983-2.01 15.115-2.033 5.132.024 10.302.695 15.128 2.033 11.526-7.813 16.6-6.19 16.6-6.19 3.287 8.318 1.22 14.46.593 15.98 3.872 4.23 6.214 9.617 6.214 16.21 0 23.195-14.127 28.3-27.574 29.796 2.166 1.874 4.096 5.55 4.096 11.183L14.978-3.5c0 1.608 1.086 3.5 4.147 2.898 23.982-7.994 41.263-30.622 41.263-57.294 0-33.353-27.037-60.388-60.388-60.388" fill="#717171" transform="matrix(.70469 0 0 .70469 50.27 91.317)"/></svg>