<svg xmlns="http://www.w3.org/2000/svg" width="100%" height="100%" viewBox="0 0 100 100" fill-rule="evenodd" stroke-linejoin="round" stroke-miterlimit="2"><path d="M28.59 14.135l-.014-.006c-.008-.003-.016-.006-.023-.013-.023-.025-.034-.06-.028-.093l.773-4.726 3.625 3.626-3.77 1.604c-.01.004-.022.006-.033.006h-.015c-.005-.003-.01-.007-.02-.017a1.72 1.72 0 0 0-.495-.381zm5.258-.288l3.876 3.876c.805.806 1.208 1.208 1.355 1.674.022.07.04.138.054.21l-9.263-3.923c-.052-.02-.095-.038-.095-.076s.044-.056.08-.07l.012-.005 3.98-1.684zm5.127 7.003c-.2.376-.6.766-1.25 1.427l-4.37 4.37-5.682-1.183c-.05-.008-.103-.017-.103-.062-.043-.47-.28-.904-.655-1.193-.023-.023-.017-.06-.01-.092l1.07-6.562c.006-.05.015-.108.06-.108a1.73 1.73 0 0 0 1.16-.665c.01-.01.015-.02.027-.027.032-.015.07 0 .103.014l9.65 4.082zm-6.626 6.802l-7.185 7.185 1.23-7.56.002-.01c.001-.01.003-.02.006-.03.01-.024.036-.034.06-.044l.012-.005a1.85 1.85 0 0 0 .695-.517c.024-.028.053-.055.1-.06.01-.002.02-.002.03 0l5.06 1.04zm-8.706 8.706l-.8.8-8.955-12.942c-.024-.033-.04-.052-.036-.074.001-.016.01-.03.022-.042l.01-.013.075-.123.02-.035.003-.003c.014-.024.027-.047.05-.06s.05-.006.073-.001l9.92 2.046c.028.004.054.016.076.033.013.013.016.027.02.043a1.76 1.76 0 0 0 1.028 1.175c.028.014.016.045.003.078-.006.014-.012.03-.015.045l-1.485 9.063zm-1.692 1.69c-.597.59-.95.904-1.347 1.03a2 2 0 0 1-1.206 0c-.466-.148-.87-.55-1.674-1.356L8.73 28.73l2.35-3.643a.15.15 0 0 1 .04-.047c.025-.018.06-.01.09 0 .54.163 1.118.133 1.638-.083.027-.01.054-.017.075.002a.17.17 0 0 1 .028.032l9 13.058zM7.863 27.863L5.8 25.8l4.074-1.738c.01-.005.022-.007.033-.007.034 0 .054.034.072.065l.13.184.013.016c.012.017.004.034-.008.05l-2.25 3.493zm-2.976-2.976l-2.6-2.6-1-1.043 7.936 1.646.03.005c.05.008.103.017.103.063s-.06.073-.11.092l-.023.01-4.337 1.837zM.83 19.892a1.99 1.99 0 0 1 .09-.495c.148-.466.55-.868 1.356-1.674l3.34-3.34 4.626 6.687c.027.036.057.076.026.106-.146.16-.292.337-.395.528-.01.025-.028.046-.05.062-.013.008-.027.005-.042.002H9.78L.83 19.892zm5.68-6.403l4.49-4.49 5.618 2.384c.03.012.057.024.07.054.008.018.004.04 0 .06-.144.658.053 1.346.523 1.828.03.03 0 .073-.026.1l-.014.02-4.56 7.063c-.012.02-.023.037-.043.05s-.058.008-.086.001c-.177-.046-.36-.07-.543-.074a2.99 2.99 0 0 0-.522.063h-.001c-.02.003-.038.007-.054-.005s-.033-.032-.045-.05L6.51 13.49zM11.91 8.09l5.814-5.814c.805-.805 1.208-1.208 1.674-1.355a2 2 0 0 1 1.206 0c.466.147.87.55 1.674 1.355l1.26 1.26-4.135 6.404c-.01.02-.024.035-.04.048-.025.017-.06.01-.1 0a2.1 2.1 0 0 0-1.92.37c-.027.028-.067.012-.1-.003L11.91 8.09zm12.506-3.676l3.818 3.818-.92 5.698v.015a.16.16 0 0 1-.008.038c-.01.02-.03.024-.05.03a1.84 1.84 0 0 0-.548.273c-.007.005-.014.01-.02.017-.01.012-.022.023-.04.025s-.03-.002-.043-.007l-5.83-2.477c-.037-.015-.08-.033-.08-.07-.034-.324-.14-.637-.3-.915-.028-.046-.06-.094-.035-.14l4.066-6.303zm-3.932 8.606l5.454 2.3c.03.014.063.027.076.058a.11.11 0 0 1 0 .057c-.016.08-.03.17-.03.263v.153c0 .038-.04.054-.075.07l-.01.004-12.147 5.173c-.017 0-.035 0-.052-.017-.03-.03 0-.072.027-.1l.014-.02 4.5-6.952c.026-.042.056-.09.104-.09l.045.007.283.027c.68 0 1.3-.33 1.7-.897.01-.015.02-.03.034-.04.027-.02.067-.01.098.004zm-6.246 9.185l12.28-5.237s.018 0 .035.017a1.66 1.66 0 0 0 .179.154l.027.017c.025.014.05.03.052.056 0 .01 0 .016-.002.025l-1.056 6.488c-.007.05-.014.107-.06.107a1.73 1.73 0 0 0-1.373.847l-.005.008c-.014.023-.027.045-.05.057s-.048.006-.07.001l-9.793-2.02c-.01-.002-.152-.52-.163-.52z" fill="url(#A)" fill-rule="nonzero" transform="matrix(2.24339 0 0 2.24339 5.6691 5.1311)"/><defs><radialGradient id="A" cx="0" cy="0" r="1" gradientUnits="userSpaceOnUse" gradientTransform="matrix(0,38.3431,-44.2199,0,-0.454945,19.4595)"><stop offset="0" stop-color="#20c6b7"/><stop offset="1" stop-color="#4d9abf"/></radialGradient></defs></svg>