<svg xmlns="http://www.w3.org/2000/svg" xmlns:xlink="http://www.w3.org/1999/xlink" width="1110" height="659.5"><style><![CDATA[.B{opacity:.1}.C{fill:#2f2e41}.D{fill:#3f3d56}.E{fill:#4d73ff}.F{stroke-miterlimit:10}]]></style><defs><linearGradient id="A" x1="656.123" y1="772.147" x2="656.123" y2="275.09" gradientUnits="userSpaceOnUse"><stop offset="0" stop-color="gray" stop-opacity=".25"/><stop offset=".535" stop-color="gray" stop-opacity=".12"/><stop offset="1" stop-color="gray" stop-opacity=".1"/></linearGradient><path id="B" d="M618.026 619.52c-2.914 1.988-6.53 2.608-10.034 3.06-3.5.444-7.113.788-10.286 2.348-2.738 1.354-5.048 3.572-7.946 4.543-2.696.74-5.535.784-8.252.13-3.258-.612-6.73-1.797-8.49-4.612-1.568-2.5-1.4-5.675-1.185-8.62q.38-5 .742-9.996a4.76 4.76 0 0 1 .62-2.417c2.356-3.434 8.084 1.438 11.15 1.43 4.856-.008 10.072-2.64 13.575-5.858a4.12 4.12 0 0 1 1.055-.795c1.384-.62 2.77.528 4 1.53l.413.337c2.837 2.248 6.646 2.707 10.15 3.617 3.5.9 7.266 2.746 8.35 6.202.07.218.127.44.168.665.635 3.182-1.3 6.57-4.03 8.436z"/><path id="C" d="M618.026 620.64c-2.914 1.988-6.53 2.608-10.034 3.06-3.5.444-7.113.788-10.286 2.348-2.738 1.354-5.048 3.572-7.946 4.543-2.696.74-5.535.784-8.252.13-3.467-.734-6.512-2.79-8.49-5.73-1.568-2.5-1.4-5.675-1.185-8.62q.38-5 .742-9.996a4.76 4.76 0 0 1 .62-2.417c2.356-3.434 8.084 1.438 11.15 1.43 4.856-.008 10.072-2.64 13.575-5.858a4.12 4.12 0 0 1 1.055-.795c1.384-.62 2.77.528 4 1.53a28.73 28.73 0 0 1-3.411 7.051c-2.376 3.73-6.307 6.187-10.7 6.692-2.172.16-4.398-.268-6.5.29-2.096.558-4.053 2.707-3.312 4.75.727 1.988 3.296 2.424 5.415 2.54 2.967.16 6.01.306 8.826-.62 1.72-.574 3.296-1.522 4.97-2.218 7.12-2.952 16.114-1.3 21.995-6.287.558-.5 1.16-.97 1.797-1.377 1.54 3.223-1.3 7.69-4.03 9.555z"/><path id="D" d="M540.764 402.755c-2.27 11.14-.118 22.724 6 32.306 1.668 2.585 3.623 5.012 4.877 7.82a35.55 35.55 0 0 1 1.903 6.198l5.405 22.373c1.46 6.04 2.93 12.197 2.49 18.395-.305 4.32-1.394 9.175 1.268 12.6a9.28 9.28 0 0 1 1.608 2.206c.265.95.275 1.953.027 2.907-2.735 16.244-4.763 33.226.177 48.94 4.477 14.243 4.733 30.024 8.54 44.46.47 1.788 1 3.672 2.365 4.93a7.75 7.75 0 0 0 3.545 1.685c5.6 1.335 11.534-.23 16.766-2.653 3.677-1.704 7.635-4.692 7.32-8.732-.15-1.922-1.272-3.607-2.034-5.377-1.495-3.473-1.615-7.353-2.018-11.113-1.013-9.44-3.923-18.555-6.123-27.792s-3.694-18.887-1.834-28.198a246.66 246.66 0 0 1 18.141-55.808 6.73 6.73 0 0 1 1.662-2.499 17.18 17.18 0 0 0 2.352-1.605c.57-.883.94-1.883 1.076-2.926.818-2.947 3.25-5.12 4.878-7.71 4.114-6.535 2.8-14.912 2.658-22.633-.148-7.508.933-15.085-.298-22.493s-5.475-14.98-12.616-17.3c-3.538-1.15-7.362-.89-11.064-.523-19.612 1.94-38.668 5.504-57.073 12.55z"/><path id="E" d="M514.998 275.714c-.434 3.01 1.013 5.97 1.174 9.007.14 2.654-.705 5.246-1.188 7.86-1.886 10.2 1.738 20.53 5.426 30.226.7 1.574 1.137 3.254 1.288 4.97.1 3.164-1.724 6.064-2.223 9.2-1.05 6.57 3.797 12.75 3.897 19.4.046 3.062-.918 6.18-.152 9.145.51 1.98 1.747 3.68 2.623 5.526 1.553 3.272 1.97 6.984 3.453 10.29 2.68 5.972 8.436 9.87 13.914 13.454 3.117-1.04 6.486-2.273 8.197-5.077a12.58 12.58 0 0 0 1.431-4.452c1.184-6.803 1.143-13.752 1.1-20.658.1-5.942-.216-11.884-.945-17.782-1.107-7.503-3.54-14.737-5.287-22.117-2.203-9.308-3.33-18.925-6.762-27.853-3.015-7.846-7.7-14.89-12.653-21.635-1.886-2.574-3.375-6.253-7.035-5.66-3.172.54-5.67 3-6.257 6.165z"/><path id="F" d="M593.54 233.408c-3.047-1.897-6.634-2.7-10.164-3.346-2.12-.482-4.3-.64-6.467-.465-2 .25-3.918 1.02-5.93 1.133-2.823.157-5.53-.988-8.258-1.734s-5.878-1.032-8.174.62a3.53 3.53 0 0 1-1.779.945c-.697-.085-1.345-.402-1.84-.902a10.48 10.48 0 0 0-13.059.688c-5.207 4.882-4.618 14.422-10.72 18.125-1.682 1.02-3.832 1.56-4.814 3.266-.238.543-.515 1.068-.83 1.57-.41.45-.91.806-1.467 1.045a28.51 28.51 0 0 0-5.03 2.891c-1.587 1.155-2.632 2.908-2.895 4.853-.023 1.41.282 2.808.89 4.08 6.12 15.008 21.024 24.54 37.214 23.797a5.89 5.89 0 0 0 3.898-1.217c.587-.662 1.05-1.424 1.366-2.25 2.87-6.015 8.257-10.456 11.678-16.174 2.04-3.408 3.348-7.22 5.47-10.578 3.218-5.09 8.11-8.848 12.9-12.497 2.7-2.057 5.708-4.216 9.102-4.072 3.024.13 5.224.29 4.115-3.418-.924-2.672-2.77-4.928-5.208-6.36z"/></defs><g fill="#f2f2f2"><path d="M90.5 27h368v305h-368z"/><ellipse cx="555" cy="585.5" rx="555" ry="74"/></g><ellipse cx="352.874" cy="673.176" rx="80.859" ry="31.118" transform="matrix(.97006 -.242865 .242865 .97006 -197.92581 -14.1445)" class="B"/><g class="C"><ellipse cx="676.274" cy="517.438" rx="41.484" ry="14.063"/><ellipse cx="671.593" cy="419.801" rx="31.118" ry="80.859" transform="matrix(.940168 -.34071 .34071 .940168 -147.84798 133.93569)"/></g><circle cx="692.446" cy="104" r="67.5" class="E"/><circle cx="692.446" cy="104" r="42.188" class="C"/><circle cx="883.696" cy="104" r="67.5" class="E"/><circle cx="883.696" cy="104" r="42.188" class="C"/><g class="E"><circle cx="788.071" cy="392.281" r="171.563"/><circle cx="788.071" cy="192.594" r="130.781"/></g><circle cx="844.321" cy="171.5" r="35.156" class="C"/><g fill="#fff"><circle cx="844.321" cy="171.5" r="9.844"/><circle cx="858.384" cy="154.625" r="4.219"/></g><ellipse cx="453.196" cy="520.391" rx="32.344" ry="4.922" class="B"/><ellipse cx="455.196" cy="517.391" rx="32.344" ry="4.922" class="C"/><ellipse cx="488.071" cy="681.281" rx="9.844" ry="18.281" transform="matrix(.212938 -.977066 .977066 .212938 -326.51446 893.08781)" class="B"/><ellipse cx="490.071" cy="678.281" rx="9.844" ry="18.281" transform="matrix(.212938 -.977066 .977066 .212938 -322.00914 892.68075)" class="C"/><ellipse cx="712.837" cy="403.531" rx="71.016" ry="77.344" class="B"/><ellipse cx="352.874" cy="668.176" rx="80.859" ry="31.118" transform="matrix(.97006 -.242865 .242865 .97006 -196.71149 -14.2942)" class="C"/><path d="M899.2 260.17c25.032-40.334 26.246-91.065 3.17-132.55s-66.817-67.2-114.288-67.214a132.33 132.33 0 0 0-12.656.612 130.8 130.8 0 0 1 98.462 199.153c53.036 45.084 73.574 117.746 51.984 183.922s-81.027 112.747-150.446 117.88q6.27.457 12.656.466c71.922.003 136.21-44.857 161.027-112.362s4.9-143.323-49.91-189.905z" class="B"/><g class="C"><ellipse cx="792.993" cy="562.438" rx="41.484" ry="14.063"/><ellipse cx="840.102" cy="101.891" rx="32.344" ry="4.922"/></g><circle cx="720.415" cy="178.5" r="35.156" class="B"/><circle cx="710.415" cy="170.5" r="35.156" class="C"/><g fill="#fff"><circle cx="710.415" cy="170.5" r="9.844"/><circle cx="724.477" cy="153.625" r="4.219"/></g><path d="M754.94 330.052a15.12 15.12 0 0 1-1.048-2.898c-.107-1.153.336-2.675-.68-3.22-.574-.308-1.36-.077-1.866-.484-.315-.36-.508-.808-.55-1.284a4.4 4.4 0 0 0-4.084-3.183c1.1-2.914 5.025-3.63 6.768-6.197.872-1.276.59-3.636-.948-3.652-.36.023-.715.117-1.04.277l-5.728 2.36c-1.1.434-2.193.934-3.243 1.5-3.15 1.79-5.507 4.705-7.625 7.665a32.96 32.96 0 0 0-4.742 8.626 19.51 19.51 0 0 0-1.009 5.904q0 .302.014.6c-.933.158-1.7.567-2.68.764q-1.1 2.94-2.22 5.88c-.298.983-.792 1.895-1.45 2.682-.494.45-1.02.866-1.577 1.24a9.09 9.09 0 0 0-3.125 7.923 8.53 8.53 0 0 0-5.008 10.51 10 10 0 0 0-7.323 6.481c-.158.737-.485 1.428-.956 2.017a3.88 3.88 0 0 1-2.557.79c-2.51.156-4.704 2.143-6.978 1.065a14.12 14.12 0 0 0-8.289-1.165c-.58.137-1.175.2-1.77.158-.508-.088-1-.26-1.45-.508a11.57 11.57 0 0 0-3.29-1.301 3.07 3.07 0 0 0-3.121 1.212c-.796-.878-1.27-2.002-1.997-2.94-.653-1.018-1.825-1.58-3.028-1.452.756-.677-.018-2.025-1-2.27a12.75 12.75 0 0 0-3.021.11c-2.627-.014-4.642-2.41-7.193-3.04-2.345-.577-5.47.11-6.673-1.994-.384-.672-.494-1.557-1.042-2.06-.13-.57-.4-1.104-.76-1.557-.962-1.096-2.59-1.252-4.043-1.207-1.597.04-3.18.312-4.698.81-.042-.2-.093-.39-.157-.605a11.93 11.93 0 0 0-5.208-6.394c-1.916-1.147-3.998-1.993-6.17-2.51-.01-.192-.03-.382-.035-.575a24.2 24.2 0 0 1 1.247-7.988c.1-.282.195-.56.293-.84a28.61 28.61 0 0 0 12.862-47.992 8.15 8.15 0 0 0-.224-1.719 8.37 8.37 0 0 0-1.73-3.349c-1.306-2.93-3.354-4.223-5.96-5.444l-2.386-1.084c-4.16-1.876-8.183-4.628-12.9-4.62-4.313 0-8.443 2.383-12.703 2.29l-.32-.015c-.107-.005-.214-.004-.32-.015-.13-.008-.252-.023-.382-.038-1.193-.146-2.623-.423-3.41.492a5.33 5.33 0 0 0-.604 1.176 2.43 2.43 0 0 1-.214.392h0a3.99 3.99 0 0 1-.543.738h0c-1.377 1.515-3.686 2.183-5.59 3.167-4.298 2.206-7.12 6.696-8.244 11.41-1.124 4.72-.727 9.68.115 14.454.424 2.388 1.357 5.098 3.055 6.596v.01l-.038-.03s-14.375 10.23-11.752 11.683c1.427.79 7.382-2.982 12.516-6.583l.157.656a48.18 48.18 0 0 0 2.348 6.719c1.094 2.575 2.623 5.35 5.3 6.12.592.162 1.206.232 1.82.208.158-.001.316-.014.475-.025.136 3.934-.28 7.868-1.237 11.686-1.56-.085-3.105.342-4.4 1.216-.488.483-1.106.813-1.78.95-.698-.085-1.346-.405-1.84-.907-3.976-2.863-9.408-2.576-13.06.692-5.207 4.908-4.618 14.498-10.72 18.22-1.682 1.026-3.832 1.57-4.814 3.283-.238.546-.515 1.073-.83 1.58-.408.45-.91.8-1.467 1.05-1.77.795-3.457 1.77-5.03 2.907a7.24 7.24 0 0 0-2.895 4.878c-.023 1.418.282 2.822.89 4.103a38.26 38.26 0 0 0 3.347 6.415c-.71.926-1.176 2.017-1.353 3.17-.434 3.027 1.014 6 1.174 9.055.14 2.668-.705 5.274-1.188 7.9-1.886 10.253 1.738 20.64 5.426 30.385.702 1.583 1.137 3.272 1.288 4.997.1 3.18-1.724 6.095-2.223 9.238-1.05 6.604 3.797 12.815 3.897 19.502.046 3.08-.918 6.212-.152 9.193.51 1.99 1.747 3.7 2.623 5.555 1.553 3.29 1.97 7.02 3.453 10.343a24.8 24.8 0 0 0 7.659 9.123c1.867 5.9-.782 13.026-.028 19.306 1.013-.394 2.035-.767 3.06-1.13a44.26 44.26 0 0 0 6.779 26.714c1.668 2.598 3.623 5.038 4.877 7.862.822 2.015 1.46 4.1 1.903 6.23q2.703 11.245 5.405 22.49c1.46 6.072 2.93 12.26 2.49 18.492-.305 4.342-1.394 9.223 1.268 12.656.642.656 1.184 1.404 1.608 2.218a5.64 5.64 0 0 1 .027 2.923c-1.3 7.253-2.2 14.574-2.67 21.927l-1.75 2.432c-4.42 6.466-6.547 14.2-8.267 21.85-3.35 14.96-4.856 30.314-5.545 45.636a30.33 30.33 0 0 0-5.659 6.896c-2.317 4.3-2.616 9.35-2.86 14.23a4.95 4.95 0 0 0 .26 2.345 4.76 4.76 0 0 0 2.44 2.037q.662.325 1.333.63c-.292 1.073-.547 2.174-.775 3.28-1.695-1.913-4.724-4.948-5.238-2.726a109.56 109.56 0 0 0-2.753 22.588c-.053.5.04.985.268 1.422.446.52 1.09.833 1.774.86a124.89 124.89 0 0 0 22.385 1.945c6.08-.023 12.145-.492 18.202-.953l6.202-.477a136.89 136.89 0 0 0 18.997-2.36c2.746-.6 5.575-1.445 7.633-3.375 2.05-1.922 3.082-5.213 1.66-7.65.001-.008-.002-.017-.008-.023-1.736-2.944-5.774-3.167-9.155-3.636a29.96 29.96 0 0 1-9.59-3.052c-.676-.35-1.334-.73-1.988-1.123.173-.048.348-.088.52-.146 2.9-.976 5.208-3.206 7.946-4.567 3.174-1.568 6.776-1.914 10.286-2.36 3.503-.454 7.12-1.076 10.034-3.075 2.73-1.876 4.665-5.282 4.03-8.48-.042-.226-.098-.45-.168-.67-1.086-3.475-4.84-5.32-8.35-6.235-3.503-.915-7.31-1.376-10.15-3.636a15.78 15.78 0 0 1-.413-.338l-.746-.595a6.04 6.04 0 0 0 .828-3.507c-.15-1.932-1.272-3.626-2.034-5.406-1.495-3.49-1.615-7.392-2.018-11.17-1.013-9.5-3.923-18.653-6.122-27.937q-.374-1.58-.716-3.174c2.14-4.447 4.76-8.645 7.817-12.52 3.484-4.37 6.032-9.41 7.487-14.807.45-1.653.788-3.337 1.132-5.02q5.862-29.107 11.05-58.345a48.96 48.96 0 0 0 .983-8.435 25.6 25.6 0 0 0 1.45-7.985c1.006-3.946 2.03-8.085 1.207-10.673-.583-1.827-.877-8.078-1.192-14.066a54.42 54.42 0 0 0-.586-9.6c-.1-.543-.2-1.086-.322-1.63-.048-.27-.113-.536-.193-.797-.455-1.8-1.09-3.55-1.893-5.226-.4-1.002-.884-1.976-1.42-2.917a13.05 13.05 0 0 0-1.085-1.587 64.52 64.52 0 0 1 6.685.615c.545.082 1.2.126 1.536-.32a1.45 1.45 0 0 0 .205-.807 13.71 13.71 0 0 0-1.741-7.268c-.86-1.524-2.052-3.014-2.02-4.765a7.27 7.27 0 0 1 .59-2.366q1.493-4 2.985-8.002c2.52-6.755 1.32-14.602 2.63-21.696a128.02 128.02 0 0 0 1.962-16.783c.242-4.814.092-10.027-2.798-13.873-.845-.928-1.578-1.952-2.183-3.052a9.31 9.31 0 0 1-.52-3.65q-.075-11.3.456-22.6a221.64 221.64 0 0 0 37.689-4.261 24.23 24.23 0 0 0 4.29-1.156c1.544-.74 2.998-1.65 4.336-2.72 4.225-3.054 8.51-6.164 11.723-10.28a34.66 34.66 0 0 0 6.949-17.133c3.056-2.83 4.68-6.854 6.21-10.737a16.46 16.46 0 0 0 1.415-5.215c.082-1.847-1.135-3.783-.798-5.6a14.82 14.82 0 0 1 4.506-8.149 2.97 2.97 0 0 0 1.072-1.432 2.32 2.32 0 0 0-.255-1.396c-.025-.057-.06-.106-.087-.162a22.21 22.21 0 0 0 .865-.574c1.002-.707 1.958-1.49 2.89-2.26a18.03 18.03 0 0 0 3.755-3.806c1.063-1.474 1.424-3.34.987-5.105zm-137.942 412.16c-.254.018-.51.03-.76.065a9.89 9.89 0 0 0-2.73.784c-.07.032-.136.073-.206.107 1.188-2.565 2.3-5.167 3.31-7.8l.352-.94-.13 1.764c-.228 2.008-.173 4.04.164 6.032z" transform="translate(-45 -120)" fill="url(#A)"/><path d="M587.335 230.34c.107 4.176 1.522 8.222 1.744 12.4-12.298.612-24.427-5.354-36.603-3.526 3.403-2.203 5.224-6.172 6.294-10.08a41.8 41.8 0 0 0 1.201-15.487 6.82 6.82 0 0 0-.153-.857c-.45-2.042-1.62-4.933-1.308-6.54.413-2.126 2.417-1.705 4.222-1.583a158.37 158.37 0 0 1 16.412 2.118c1.415.245 15.196 3.686 15.403 3.327a64.61 64.61 0 0 0-5.965 12.3 23.96 23.96 0 0 0-1.247 7.946zm121.617-12.9a17.98 17.98 0 0 1-3.755 3.786l-2.9 2.248c-1.784 1.377-3.9 2.242-6.15 2.5-2.93.2-9.147-1.522-10.967-4.03a7.27 7.27 0 0 1-1.048-4.199 19.25 19.25 0 0 1 1.01-5.874 32.7 32.7 0 0 1 4.742-8.58c2.118-2.944 4.474-5.843 7.625-7.625a29.58 29.58 0 0 1 3.243-1.491l5.728-2.348c.325-.16.68-.253 1.04-.275 1.537.015 1.82 2.363.948 3.633-1.744 2.554-5.667 3.266-6.768 6.164 1.904.06 3.553 1.337 4.084 3.166a2.24 2.24 0 0 0 .551 1.277c.505.405 1.293.176 1.866.482 1.017.543.574 2.057.68 3.204a14.95 14.95 0 0 0 1.048 2.883 6.13 6.13 0 0 1-.986 5.078z" fill="#a0616a"/><path d="M539.432 636.1c.947-.946 2.493-.785 3.815-.576 7.096 1.122 14.267 1.702 21.45 1.735.9-4.392-1.71-8.66-2.553-13.064-.122-1.136-.408-2.25-.85-3.303-1.012-1.94-3.294-2.83-5.435-3.28-3.866-.815-9.908-2.254-12.067 1.654-2.59 4.7-3.42 11.616-4.36 16.835z" fill="#65617d"/><use xlink:href="#B" class="D"/><use xlink:href="#B" class="C"/><use xlink:href="#C" fill="#e8eaf2"/><use xlink:href="#C" opacity=".05"/><use xlink:href="#D" class="C"/><use xlink:href="#D" class="B"/><path d="M620.642 449.843a46.89 46.89 0 0 1-.987 8.68q-5.185 29.08-11.05 58.04l-1.132 4.994a40.5 40.5 0 0 1-7.487 14.73c-16.298 20.313-17.705 49.81-26.546 74.307l-1.828 4.956c-1.598 4.15-3.418 8.213-5.453 12.168a3.48 3.48 0 0 1-1.124 1.453c-.548.276-1.162.395-1.774.344-7.955.046-15.814-1.742-22.967-5.224-1.02-.377-1.882-1.092-2.44-2.027a4.9 4.9 0 0 1-.26-2.333c.245-4.856.543-9.89 2.86-14.156 1.538-2.553 3.445-4.865 5.66-6.86.688-15.242 2.195-30.515 5.545-45.398 1.72-7.6 3.847-15.303 8.267-21.735 3.258-4.75 7.93-9.438 7.357-15.166-.252-2.516-1.308-5.652.742-7.128.895-.65 2.218-.734 2.822-1.66a3.15 3.15 0 0 0 .398-1.422c.42-3.93.176-7.905-.727-11.755-.745-2.515-1.33-5.074-1.75-7.663-.26-2.616.184-5.445 1.927-7.403.107-5.23-.038-10.66.07-15.885.206-2.977-.042-5.97-.734-8.872-.398-1.37-1.002-2.677-1.308-4.076-1.094-5.025 1.637-11.044-1.614-15.028-1.354-1.652-3.442-2.478-5.216-3.67-3.54-2.363-5.866-6.233-7.16-10.294-1.147-4.112-1.827-8.34-2.027-12.604a12.97 12.97 0 0 1-.031-2.723 4.99 4.99 0 0 1 .367-1.361c1-2.27 3.725-3.15 6.14-3.732 15.36-3.684 31.102-5.525 46.897-5.484 5.843-3.977 9.132-2.554 11.61 1.66 1.368 2.572 2.475 5.275 3.304 8.07 1.132 3.42 1.2 22.554 2.302 25.988 1.43 4.466-2.707 13.583-2.654 18.27z" class="C"/><use xlink:href="#E" class="D"/><use xlink:href="#E" opacity=".05"/><path d="M594.547 210.104c-2.416 3.875-4.415 7.995-5.965 12.3-2.217.545-4.493.82-6.776.818-8.864 0-15.142-5.044-20.35-11.414-.45-2.042-3.26-3.95-2.945-5.556.413-2.126 2.417-1.705 4.222-1.583 5.504.42 10.982 1.126 16.412 2.118 1.415.245 15.196 3.686 15.403 3.327z" class="B"/><circle cx="581.808" cy="194.045" r="28.4" fill="#a0616a"/><path d="M617.69 397.516c-4.918-.29-9.866-.092-14.8.107a49.96 49.96 0 0 0-9.185.941c-3.732.85-7.22 2.547-10.898 3.6-5.89 1.713-12.107 1.8-18.2 2.394-4.007.39-7.99 1.012-11.923 1.866a4.99 4.99 0 0 1 .367-1.361c1-2.27 3.725-3.15 6.14-3.732 15.36-3.684 31.102-5.525 46.897-5.484 5.843-3.977 9.132-2.554 11.6 1.66z" class="B"/><path d="M598.335 240.535c-1.238 1.433-2.9 3.01-4.736 2.55a6.47 6.47 0 0 1-1.843-.986c-3.274-2.1-7.292-2.605-11.144-3.185a164.43 164.43 0 0 1-22.949-5.159 23.41 23.41 0 0 0-6.788-1.38c-4.813.025-9.08 3.225-12.096 6.976s-5.153 8.14-8.113 11.936c-2.11 2.704-4.62 5.088-6.6 7.895-4.972 7.088-6.04 16.336-4.757 24.898s4.705 16.636 8.095 24.603c1.812 4.625 4.023 9.084 6.61 13.326-1.144 6.506-.54 13.946 2.554 19.782 1.008 1.9 2.242 3.754 2.575 5.88.153 1.438.093 2.89-.178 4.312l-1.445 10.282-1.45 9.372c-1.043 5.692-2.46 11.87.177 17.02 3.157 6.17-.16 14.074.67 20.954 8.885-3.432 18.195-5.644 27.674-6.575 6.103-.598 12.32-.674 18.208-2.387 3.677-1.07 7.164-2.764 10.898-3.617a50.24 50.24 0 0 1 9.189-.938c6.805-.275 13.66-.547 20.395.456.546.08 1.2.125 1.536-.32.146-.242.217-.52.205-.803a13.58 13.58 0 0 0-1.741-7.23c-.86-1.516-2.052-2.998-2.02-4.74a7.2 7.2 0 0 1 .59-2.354l2.985-7.96c2.52-6.72 1.32-14.526 2.63-21.582 1.023-5.516 1.678-11.093 1.962-16.696.242-4.79.092-9.974-2.798-13.8-.845-.922-1.578-1.94-2.183-3.036-.415-1.163-.592-2.398-.52-3.63q-.097-14.374.79-28.73l-7.666-13.68c-2.932-5.267-5.906-10.642-7.1-16.552-.784-3.912-.756-7.94-1.317-11.892-.06-1.003-.408-1.968-1.004-2.777-.962-1.1-2.59-1.246-4.043-1.2-1.795.057-3.57.384-5.268.97z" class="D"/><path d="M702.306 223.473c-1.784 1.377-3.9 2.242-6.15 2.5-2.93.2-9.147-1.522-10.967-4.03a7.27 7.27 0 0 1-1.048-4.199c.397-.13.808-.208 1.224-.237 3.178-.352 6.4-.223 9.53.382 3.097.757 6.088 2.638 7.396 5.552.008.008.008.023.015.03z" class="B"/><path d="M607.82 284.892c1.73 2.155 3.53 4.37 5.982 5.644 2.82 1.464 6.144 1.498 9.322 1.43 13.086-.28 26.12-1.71 38.956-4.28a24.33 24.33 0 0 0 4.29-1.15c1.543-.735 2.998-1.642 4.336-2.705 4.225-3.038 8.5-6.132 11.723-10.226a34.38 34.38 0 0 0 6.949-17.043c3.056-2.816 4.68-6.818 6.21-10.68a16.31 16.31 0 0 0 1.415-5.188c.082-1.837-1.135-3.763-.798-5.57a14.72 14.72 0 0 1 4.506-8.106c.495-.353.87-.85 1.072-1.424.063-.478-.026-.964-.255-1.388-1.308-2.913-4.298-4.79-7.398-5.554-3.14-.605-6.354-.733-9.532-.378a22.28 22.28 0 0 0-3.122.829l-2.22 5.848c-.298.978-.792 1.886-1.45 2.668a13.62 13.62 0 0 1-1.577 1.233 9.02 9.02 0 0 0-3.125 7.882 8.47 8.47 0 0 0-5.008 10.455 9.98 9.98 0 0 0-7.323 6.447 4.82 4.82 0 0 1-.956 2.006c-.733.556-1.64.834-2.557.786-2.5.155-4.704 2.132-6.978 1.06-2.583-1.21-5.472-1.615-8.288-1.158a6.24 6.24 0 0 1-1.769.157 4.67 4.67 0 0 1-1.451-.505 11.61 11.61 0 0 0-3.29-1.294 3.08 3.08 0 0 0-3.121 1.206c-.796-.873-1.27-1.992-1.997-2.925a3.2 3.2 0 0 0-3.028-1.445c.756-.674-.018-2.014-1-2.26a12.82 12.82 0 0 0-3.021.109c-2.627-.014-4.642-2.4-7.193-3.023-2.345-.574-5.47.1-6.673-1.983-.426-.742-.5-1.75-1.235-2.203-.49-.24-1.05-.306-1.584-.184a15.49 15.49 0 0 0-4.792 1.454c-2.46 9.62-1.17 19.61.705 29.36a25.9 25.9 0 0 0 5.279 12.101z" class="D"/><path d="M607.747 319.363l-12.23 24.66c1.322-2.285 4.1-3.167 6.308-4.628a16.72 16.72 0 0 0 6.035-8.107 49.95 49.95 0 0 0 2.31-9.99c.25-1.565.767-3.758.012-5.175-1.406.3-1.86 2.082-2.435 3.24zm-35.187 20.934c-2.76 2.73-6.138 4.74-9.174 7.16-7.1 5.65-12.15 13.398-17.085 21.005a33.02 33.02 0 0 0-3.491 6.361c.577.495 1.443-.02 2.015-.52l9.603-8.44a21.61 21.61 0 0 0 3.203-3.24c1.666-2.245 2.406-5.05 3.92-7.4a29 29 0 0 1 5.836-5.948c2.204-1.9 12.342-10.463 9.87-13.8-1.782.898-3.24 3.37-4.696 4.815z" class="B"/><use xlink:href="#F" class="D"/><use xlink:href="#F" opacity=".05"/><path d="M608.32 645.018c-2.057 1.92-4.887 2.76-7.633 3.357a137.57 137.57 0 0 1-18.997 2.348l-6.202.474c-6.057.46-12.122.925-18.202.948a125.53 125.53 0 0 1-22.385-1.935 1.9 1.9 0 0 1-2.042-2.271c.13-7.565 1.054-15.096 2.753-22.47.704-3.03 6.134 3.763 6.378 4.046 1.507 1.713 2.646 2.5 4.933 2.623 6.248.344 13.246-3.457 18.2-6.837 1.063-.79 2.19-1.49 3.373-2.088a9.93 9.93 0 0 1 2.73-.78c3.215-.296 6.446.358 9.292 1.88 3.732 1.85 7.006 4.512 10.7 6.417 3.004 1.543 6.246 2.57 9.6 3.036 3.38.467 7.42.688 9.155 3.617.006.006.01.015.008.023 1.423 2.424.4 5.698-1.66 7.6z" class="C"/><path d="M608.32 646.137c-2.057 1.92-4.887 2.76-7.633 3.357a137.57 137.57 0 0 1-18.997 2.348l-6.202.474c-6.057.46-12.122.925-18.202.948a125.53 125.53 0 0 1-22.385-1.935 2.47 2.47 0 0 1-1.774-.857c-.583-.773-1.05-1.626-1.387-2.534.13-7.556 2.175-15.105 3.872-22.47.704-3.03 6.134 3.763 6.378 4.046 1.507 1.713 2.646 2.5 4.933 2.623 6.248.344 13.246-3.457 18.2-6.837 1.063-.79 2.19-1.49 3.373-2.088a9.93 9.93 0 0 1 2.73-.78c-.803 4.497-7.25 9.927-10.577 11.58-6.73 3.342-14.73 1.675-22.24 2.065a3.1 3.1 0 0 0-1.576.382c-.902.597-.956 1.874-.925 2.952.06 1.8.29 3.893 1.843 4.803.777.373 1.632.55 2.493.52 18.507.8 37.05.16 55.455-1.943a30.49 30.49 0 0 0 9.032-2.011 23.38 23.38 0 0 0 5.239-3.373c2.364 1.858.4 6.817-1.66 8.73z" fill="#e8eaf2"/><path d="M592.857 193.738c-.107 2.937 1.897 8.634-3.594 7.044-3.273-.948-4.2-4.826-8.352-3.962-4.19.88-5.11 5.98-6.516 9.33-2.327 5.404-7.168 9.315-12.94 10.455a7.79 7.79 0 0 1-3.564-.008c-2.677-.765-4.206-3.526-5.3-6.088a47.76 47.76 0 0 1-2.348-6.684c-.427-1.606-.71-3.246-.85-4.902v-.008c-.093-1.127-.098-2.26-.015-3.388.497-6.677 4.298-12.764 9.162-17.368s10.776-7.93 16.61-11.212c1.906-1.19 3.967-2.108 6.126-2.73 2.13-.43 4.313-.52 6.47-.268 2.84.12 5.632.778 8.23 1.935a11.59 11.59 0 0 1 2.898 2.034c1.22 1.13 2.09 2.583 2.508 4.19 1.056 4.313-1.698 8.2-3.93 11.6-1.99 3.03-4.45 6.24-4.596 10.02z" class="C"/><path d="M685.27 256.766c-1.175-2.96-6.108-11.14-4.68-13.953 1.482 2.1 2.74 4.35 3.753 6.712.932 2.288.17 5.356.928 7.242zm-87.695-73.048c2.237-3.413 5-7.298 3.937-11.6a9.05 9.05 0 0 0-3.194-4.78c.36.63.633 1.3.8 2.015 1.054 4.314-1.7 8.2-3.937 11.6-1.986 3.03-4.45 6.244-4.592 10.02-.1 2.935 1.897 8.636-3.6 7.045-3.27-.947-4.195-4.827-8.35-3.96-4.192.874-5.107 5.977-6.514 9.33a17.87 17.87 0 0 1-12.943 10.455 7.81 7.81 0 0 1-3.56-.01 5.41 5.41 0 0 1-1.678-.824 7.24 7.24 0 0 0 4.063 3.589c1.17.277 2.4.28 3.56.01a17.87 17.87 0 0 0 12.943-10.455c1.407-3.353 2.322-8.456 6.514-9.33 4.155-.867 5.08 3.014 8.35 3.96 5.497 1.592 3.5-4.1 3.6-7.045.142-3.776 2.606-7 4.592-10.02z" class="B"/><path d="M598.79 177.884a25.03 25.03 0 0 1-1.683 2.401 28.41 28.41 0 0 1-3.885 4.023c-.838.73-1.714 1.417-2.623 2.057-1.685 1.186-3.457 2.245-5.3 3.166-5.37 2.707-11.18 4.405-16.963 6.08q-5.667 1.652-11.342 3.296c-1.392 1.055-3.94 2.952-6.753 4.918-.427-1.606-.71-3.246-.85-4.902v-.008c-.093-1.127-.098-2.26-.015-3.388.497-6.677 4.298-12.764 9.162-17.368s10.776-7.93 16.61-11.212c1.906-1.19 3.967-2.108 6.126-2.73 2.13-.43 4.313-.52 6.47-.268 2.84.12 5.632.778 8.23 1.935a11.59 11.59 0 0 1 2.899 2.034c.64.944 1.13 1.98 1.453 3.074.72 2.325-.268 4.826-1.537 6.89z" class="B"/><path d="M598.79 177.12a25.03 25.03 0 0 1-1.683 2.401 28.41 28.41 0 0 1-3.885 4.023 32.33 32.33 0 0 1-2.623 2.057 41.28 41.28 0 0 1-5.3 3.166c-5.37 2.707-11.18 4.405-16.963 6.08q-5.667 1.652-11.342 3.296c-3.954 3-17.2 12.803-19.426 11.58-2.623-1.445 11.752-11.622 11.752-11.622l.66.502c-2.103-1.323-3.204-4.4-3.68-7.044-.84-4.75-1.24-9.682-.115-14.378 1.124-4.688 3.946-9.155 8.244-11.35 1.904-.98 4.214-1.644 5.59-3.15a3.97 3.97 0 0 0 .543-.734c.083-.123.155-.254.214-.4.152-.414.355-.807.604-1.17.788-.9 2.218-.635 3.41-.49.13.015.252.03.382.038a6.01 6.01 0 0 0 .642.031c4.26.092 8.4-2.28 12.703-2.28 4.726-.008 8.75 2.73 12.9 4.596l2.386 1.078c3.006 1.4 5.27 2.89 6.508 6.868.72 2.325-.268 4.826-1.537 6.89z" class="D"/><path d="M565.82 159.965c.487.828.295 1.888-.45 2.493a3.49 3.49 0 0 1-1.8.635 12.05 12.05 0 0 1-1.392.107 3.8 3.8 0 0 1-1.843-.314 2.36 2.36 0 0 1-.32-.206 3.97 3.97 0 0 0 .543-.734c.107.084.214.06.642.03.778-.038 1.548-.17 2.294-.4a2.59 2.59 0 0 0 .864-.413 2.63 2.63 0 0 0 .81-1.24zm-16.215 38.023a5.25 5.25 0 0 0 1.962.73c1.775.516 3.688.23 5.234-.784M384.5 609.5q-14.238 0-28.4-12.277l1.82-2.712c17.893 15.538 35.287 15.538 53.18 0l1.82 2.712q-14.14 12.276-28.4 12.277z" class="B"/><path d="M384.5 605.49c-9.492 0-18.984-3.6-28.4-10.797l1.82-2.385c17.893 13.664 35.287 13.664 53.18 0l1.82 2.385c-9.426 7.197-18.918 10.797-28.4 10.797z"/><g fill="none" stroke="#3f3d56"><path d="M49 .5h368v305H49z" class="F"/><ellipse cx="333.411" cy="313.307" rx="11.836" ry="30.756" transform="matrix(.940168 -.34071 .34071 .940168 -131.79848 12.34201)"/><circle cx="243.853" cy="102.478" r="16.046"/><circle cx="319.925" cy="102.478" r="16.046"/><circle cx="301.62" cy="128.152" r="13.372"/><circle cx="301.62" cy="128.152" r="3.744"/><circle cx="266.247" cy="128.152" r="3.744"/><circle cx="306.969" cy="121.733" r="1.605"/><circle cx="266.383" cy="128.152" r="13.372"/><circle cx="261.034" cy="121.733" r="1.605"/><path d="M345.48 212.128a65.11 65.11 0 0 0-22.99-49.714 49.86 49.86 0 0 0 6.241-37.307c9.476-5.08 14.783-15.524 13.3-26.173s-9.446-19.244-19.95-21.54-21.324 2.198-27.113 11.258c-9.605-2.962-19.88-2.962-29.485 0-5.8-9.057-16.61-13.548-27.11-11.253s-18.462 10.89-19.946 21.535 3.82 21.1 13.294 26.17a49.86 49.86 0 0 0 6.241 37.307c-3.152 2.684-6.043 5.66-8.635 8.887-5.838-15.095-15.063-25.414-21-23.263-6.146 2.227-6.436 16.98-.65 32.948 2.12 6.053 5.096 11.77 8.838 16.98a65.35 65.35 0 0 0 14.425 56.935c-5.33.858-9.018 2.7-9.018 4.834 0 2.954 7.064 5.35 15.78 5.35 1.43 0 2.814-.066 4.13-.186 7.37 5.378 15.792 9.143 24.714 11.048-.147.28-.226.6-.23.905 0 2.954 7.064 5.35 15.78 5.35s15.78-2.395 15.78-5.35c-.032-.64-.316-1.24-.788-1.67 28.54-7.643 48.39-33.504 48.392-63.05z" class="F"/><ellipse cx="283.431" cy="138.612" rx="2.663" ry="6.086"/></g></svg>