<svg xmlns="http://www.w3.org/2000/svg" width="100%" height="100%" viewBox="0 0 890 460" fill-rule="evenodd" stroke-linejoin="round" stroke-miterlimit="2"><style><![CDATA[.B{fill:#3f3d56}.C{fill:#e6e6e6}.D{fill:#4d73ff}.E{fill-rule:nonzero}]]></style><ellipse cx="444.538" cy="398.169" rx="444.538" ry="12.435" fill="#e5ebff"/><g class="E"><path d="M681.445 263.432l-1.69.015c-.57 0-1.13-.008-1.692-.015-29.757-.677-51.326-19.27-45.836-38.777l16.77-59.63 59.976 1.022 17.993 58.146c6.074 19.616-15.494 38.562-45.52 39.24z" class="B"/><path d="M712.617 177.827c-20.796 11.888-46.483 11.596-67.004-.76l3.384-12.04 59.976 1.022 3.644 11.78z" fill-opacity=".2"/><g class="B"><path d="M710.086 226.234c2.6-9.656 11.106-23.586 34.987-40.38 41.648-29.294 16.803-51.26 15.726-52.18-2.258-1.93-1.925-4.098.776-4.838a11.23 11.23 0 0 1 9.034 2.102c1.348 1.116 32.46 27.683-14.537 60.735-42.295 29.75-33.302 49.17-33.2 49.355 1.133 2.077-.684 3.74-4.063 3.717s-7.04-1.723-8.176-3.798c-.24-.44-2.96-5.724-.548-14.713zm-58.014 44.133h0c-3.796 0-6.92-3.124-6.92-6.92V233.46c0-3.797 3.124-6.92 6.92-6.92s6.92 3.123 6.92 6.92v29.988c0 3.796-3.124 6.92-6.92 6.92zm6.068-71.193a6.93 6.93 0 0 1-6.287 4.028 6.91 6.91 0 0 1-2.892-.634l-27.243-12.534a6.93 6.93 0 0 1-4.022-6.283c0-3.797 3.124-6.92 6.92-6.92a6.93 6.93 0 0 1 2.886.63l27.243 12.534a6.93 6.93 0 0 1 4.028 6.287c0 .998-.217 1.985-.634 2.892zm43.227 0a6.93 6.93 0 0 0 6.287 4.028 6.91 6.91 0 0 0 2.893-.634l27.243-12.534a6.93 6.93 0 0 0 4.027-6.286c0-3.797-3.124-6.92-6.92-6.92a6.91 6.91 0 0 0-2.892.634l-27.243 12.534a6.93 6.93 0 0 0-4.028 6.287c0 .998.216 1.985.633 2.892z"/><path d="M707.435 270.367h0c3.796 0 6.92-3.124 6.92-6.92V233.46c0-3.797-3.124-6.92-6.92-6.92s-6.92 3.123-6.92 6.92v29.988c0 3.796 3.123 6.92 6.92 6.92zm28.92-194.142a6.81 6.81 0 0 0 1.373-5.408l-7.533-44.314c-.562-3.3-3.458-5.755-6.815-5.755a6.92 6.92 0 0 0-4.411 1.59l-27.73 22.98a65.68 65.68 0 0 0-21.047-.317l-27.348-22.663a6.92 6.92 0 0 0-4.411-1.59c-3.357 0-6.253 2.445-6.815 5.755l-7.533 44.314a6.85 6.85 0 0 0 .301 3.473c-7.008 10.743-10.74 23.297-10.74 36.124 0 36.27 29.847 66.117 66.118 66.117s66.117-29.846 66.117-66.117a66.12 66.12 0 0 0-9.525-34.189h0z"/></g><path d="M641.1 31.418c-.4 0-.818.074-1.202.218a3.39 3.39 0 0 0-2.185 2.635l-4.567 26.87c-.032.2-.048.38-.048.573a3.44 3.44 0 0 0 3.422 3.423 3.43 3.43 0 0 0 1.191-.214l25.553-9.48a3.43 3.43 0 0 0 2.232-3.209c0-1.018-.455-1.985-1.24-2.635h0l-20.974-17.4a3.39 3.39 0 0 0-2.172-.792zm79.605 0c-.795.001-1.564.282-2.172.792l-20.986 17.4c-.784.65-1.24 1.617-1.24 2.635a3.43 3.43 0 0 0 2.232 3.209l25.553 9.48a3.43 3.43 0 0 0 1.191.214 3.44 3.44 0 0 0 3.422-3.423c0-.192-.016-.384-.048-.573l-4.567-26.87a3.39 3.39 0 0 0-2.185-2.635 3.42 3.42 0 0 0-1.201-.218z" class="C"/></g><circle cx="679.753" cy="119.658" r="9.227" class="C"/><ellipse cx="679.753" cy="115.044" rx="6.151" ry="2.307" class="B"/><g class="E"><path d="M675.14 125.04h8.458v10.38a4.25 4.25 0 0 1-4.229 4.229 4.25 4.25 0 0 1-4.229-4.229v-10.38z" fill="#ff6584"/><path d="M680.267 20.38l-1.28 2.798c-4.772 11.128-6.38 23.36-4.65 35.344l2.7-3.888a65.78 65.78 0 0 1 3.229-34.254zm6.92 8.458l-1.28 2.798a65.84 65.84 0 0 0-4.65 35.344l2.7-3.888a65.79 65.79 0 0 1 3.229-34.254z" class="B"/><path d="M708.523 194.89l-1.95-24.796a3.84 3.84 0 0 0-3.813-3.526 3.83 3.83 0 0 0-2.167.673l-17.734 12.187a5.1 5.1 0 0 0-7.749 0l-7.484-5.144-10.25-7.043a3.83 3.83 0 0 0-2.167-.673c-1.985 0-3.657 1.546-3.813 3.526l-1.962 25.096c0 2.098 1.727 3.825 3.826 3.825a3.82 3.82 0 0 0 1.647-.373l20.447-9.754c.958.97 2.267 1.518 3.63 1.518a5.1 5.1 0 0 0 3.63-1.518l20.448 9.754c.514.246 1.077.373 1.647.373 2.098 0 3.825-1.727 3.825-3.825l-.012-.3z" class="D"/></g><g class="C"><circle cx="667.451" cy="109.662" r="2.307"/><circle cx="692.056" cy="109.662" r="2.307"/></g><g class="E"><path d="M233.426 243.052l1.69.015 1.692-.015c29.757-.677 51.326-19.27 45.835-38.777l-16.77-59.63-59.976 1.023-17.993 58.146c-6.074 19.615 15.494 38.56 45.52 39.238z" class="B"/><path d="M202.253 157.448c20.797 11.887 46.484 11.595 67.005-.762l-3.384-12.04-59.976 1.023-3.645 11.78z" fill-opacity=".2"/><g class="B"><path d="M197.5 200.214c-6.473-7.62-20.13-16.565-48.9-21.526-50.178-8.656-37.12-39.14-36.542-40.432 1.215-2.7-.014-4.527-2.77-4.04-3.14.784-5.8 2.888-7.266 5.766-.74 1.585-17.492 38.9 39.127 48.673 50.957 8.8 51.14 30.2 51.126 30.403-.136 2.362 2.218 3.086 5.262 1.62s5.625-4.57 5.765-6.93c.028-.5.227-6.44-5.8-13.532zm65.298 49.774h.001c3.796 0 6.92-3.124 6.92-6.92v-30c-.005-3.793-3.127-6.912-6.92-6.912s-6.916 3.12-6.92 6.912v30c0 3.796 3.124 6.92 6.92 6.92zm-6.068-71.193a6.93 6.93 0 0 0 6.287 4.028c.998 0 1.985-.217 2.892-.634l27.243-12.534a6.93 6.93 0 0 0 4.035-6.29c0-3.796-3.124-6.92-6.92-6.92-1 0-2 .217-2.9.636l-27.243 12.534c-2.45 1.128-4.028 3.6-4.028 6.287a6.91 6.91 0 0 0 .634 2.893zm-43.226 0c-1.128 2.45-3.6 4.028-6.287 4.028-1 0-1.986-.217-2.893-.634l-27.243-12.534a6.93 6.93 0 0 1-4.034-6.29c0-3.796 3.124-6.92 6.92-6.92 1 0 2 .217 2.9.636l27.243 12.534a6.93 6.93 0 0 1 3.395 9.18z"/><path d="M207.436 249.988h0c-3.796 0-6.92-3.124-6.92-6.92v-30c.004-3.793 3.127-6.912 6.92-6.912s6.916 3.12 6.92 6.912v30c0 3.796-3.124 6.92-6.92 6.92zM290.485 53.9c.398-1.113.502-2.3.3-3.474l-7.533-44.314c-.562-3.3-3.458-5.754-6.815-5.754a6.91 6.91 0 0 0-4.411 1.59L244.68 24.62a65.71 65.71 0 0 0-21.047.317L195.9 1.96C194.66.93 193.1.368 191.5.368a6.94 6.94 0 0 0-6.816 5.755l-7.532 44.314a6.81 6.81 0 0 0 1.373 5.408c-6.243 10.324-9.544 22.16-9.544 34.225 0 36.282 29.855 66.137 66.137 66.137s66.137-29.855 66.137-66.137c0-12.84-3.74-25.408-10.76-36.16h0z"/></g><path d="M271.6 11.83l-20.986 17.4a3.42 3.42 0 0 0-1.238 2.635 3.43 3.43 0 0 0 2.232 3.208l25.553 9.48a3.43 3.43 0 0 0 1.191.213 3.44 3.44 0 0 0 3.422-3.422c0-.192-.016-.384-.048-.574L277.15 13.9c-.198-1.207-1.035-2.217-2.185-2.636a3.47 3.47 0 0 0-1.202-.218c-.794.002-1.563.282-2.172.792zm-78.625-.574c-1.15.42-1.987 1.43-2.185 2.636l-4.567 26.87c-.032.2-.05.382-.05.574a3.44 3.44 0 0 0 3.423 3.422c.406 0 .8-.072 1.2-.213l25.553-9.48a3.43 3.43 0 0 0 2.232-3.208 3.42 3.42 0 0 0-1.24-2.635l-20.986-17.4c-.608-.5-1.377-.8-2.172-.792a3.5 3.5 0 0 0-1.2.218z" class="C"/></g><circle cx="235.117" cy="99.278" r="9.227" class="C"/><ellipse cx="235.117" cy="94.665" rx="6.151" ry="2.307" class="B"/><g class="E"><path d="M390.964 324.97a4.25 4.25 0 0 1 4.229 4.229v10.38h-8.458V329.2a4.25 4.25 0 0 1 4.229-4.229z" fill="#ff6584" transform="matrix(-1 0 0 -1 626.465 444.241)"/><path d="M234.604 0l1.28 2.798c4.772 11.13 6.38 23.36 4.65 35.344l-2.7-3.887c1.982-11.502.867-23.326-3.23-34.255zm-6.92 8.458l1.28 2.8a65.83 65.83 0 0 1 4.651 35.343l-2.7-3.887c1.98-11.502.867-23.326-3.23-34.255z" class="B"/><path d="M206.348 39.948l1.95-24.797c.156-1.98 1.828-3.525 3.814-3.525.773 0 1.53.235 2.166.673l17.735 12.186c.967-1.133 2.384-1.786 3.874-1.786a5.1 5.1 0 0 1 3.875 1.786L257.495 12.3c.637-.438 1.393-.673 2.166-.673 1.986 0 3.658 1.546 3.814 3.525l1.95 24.797.012.3c0 2.1-1.727 3.826-3.826 3.826-.57 0-1.132-.128-1.647-.373l-20.447-9.755c-.958.97-2.267 1.518-3.63 1.518s-2.672-.547-3.63-1.518L211.808 43.7a3.83 3.83 0 0 1-1.647.373c-2.098 0-3.825-1.727-3.825-3.826l.012-.3z" class="D"/><path d="M245.113 89.282c0 1.274 1.033 0 2.307 0s2.307 1.274 2.307 0a2.32 2.32 0 0 0-2.307-2.302 2.32 2.32 0 0 0-2.307 2.302zm-19.993 0c0 1.274-1.033 0-2.307 0s-2.306 1.274-2.306 0a2.32 2.32 0 0 1 2.306-2.302 2.32 2.32 0 0 1 2.307 2.302z" class="C"/><path d="M481.05 263.45v-14.663h-73.314v147.545h73.314V381.67H422.4V263.45h58.65z" class="B"/><path d="M516.8 248.8v147.544h73.314V248.8H516.8zm58.65 132.88h-43.988V263.45h43.988v118.22zm-262.096 0V249.705H298.68v146.628h73.314V381.67h-58.65z" class="D"/><path d="M265.7 263.45v-14.663h-73.314v147.545H265.7V381.67h-58.65v-52.236h58.65V314.77h-58.65v-51.32h58.65z" class="B"/><path d="M839.372 263.45v-14.663h-73.314v147.545h73.314V381.67h-58.65v-52.236h58.65V314.77h-58.65v-51.32h58.65z" class="D"/><path d="M142.9 249.705V370.9l-38.66-38.66-.088.1-.082-.082-39.523 39.523V249.247H49.872v146.628h14.663v-3.38l39.612-39.612 38.742 38.743v4.706h14.663V249.705H142.9zm574.598 0v3.378l-39.612 39.612-38.743-38.742v-4.706H624.47v146.628h14.663V274.7l38.66 38.66.1-.1.08.08 39.524-39.523V396.33h14.662V249.705h-14.662z" class="B"/></g><g class="D"><circle cx="335.076" cy="150.38" r="9"/><circle cx="113.076" cy="250.38" r="9"/><circle cx="291.076" cy="450.38" r="9"/><circle cx="517.076" cy="177.38" r="9"/><circle cx="782.076" cy="442.38" r="9"/><circle cx="791.076" cy="206.38" r="9"/><circle cx="677.076" cy="368.38" r="9"/></g></svg>