<?xml version="1.0" encoding="UTF-8" standalone="no"?>
<!DOCTYPE svg PUBLIC "-//W3C//DTD SVG 1.1//EN" "http://www.w3.org/Graphics/SVG/1.1/DTD/svg11.dtd">
<svg width="100%" height="100%" viewBox="0 0 890 460" version="1.1" xmlns="http://www.w3.org/2000/svg" xmlns:xlink="http://www.w3.org/1999/xlink" xml:space="preserve" xmlns:serif="http://www.serif.com/" style="fill-rule:evenodd;clip-rule:evenodd;stroke-linejoin:round;stroke-miterlimit:2;">
    <ellipse cx="444.538" cy="398.169" rx="444.538" ry="12.435" style="fill:rgb(229,235,255);"/>
    <g transform="matrix(1,0,0,1,-155.462,-220.31)">
        <path d="M836.907,483.742C836.346,483.749 835.785,483.757 835.216,483.757C834.647,483.757 834.085,483.749 833.524,483.742C803.767,483.065 782.198,464.472 787.688,444.965L801.075,397.376L804.459,385.335L864.435,386.357L868.08,398.137L882.428,444.503C888.502,464.119 866.934,483.065 836.907,483.742Z" style="fill:rgb(63,61,86);fill-rule:nonzero;"/>
    </g>
    <g transform="matrix(1,0,0,1,-155.462,-220.31)">
        <path d="M868.079,398.137C847.283,410.025 821.596,409.733 801.075,397.376L804.459,385.335L864.435,386.357L868.079,398.137Z" style="fill-opacity:0.2;fill-rule:nonzero;"/>
    </g>
    <g transform="matrix(1,0,0,1,-155.462,-220.31)">
        <path d="M865.548,446.544C868.139,436.888 876.654,422.958 900.535,406.164C942.183,376.87 917.338,354.905 916.261,353.984C914.003,352.054 914.336,349.886 917.037,349.146C920.209,348.512 923.505,349.279 926.071,351.248C927.419,352.364 958.53,378.931 911.534,411.983C869.239,441.732 878.232,461.152 878.335,461.338C879.468,463.415 877.651,465.077 874.272,465.055C870.893,465.032 867.232,463.332 866.096,461.257C865.856,460.818 863.135,455.533 865.548,446.544Z" style="fill:rgb(63,61,86);fill-rule:nonzero;"/>
    </g>
    <g transform="matrix(1,0,0,1,-155.462,-220.31)">
        <path d="M807.534,490.677L807.534,490.677C803.738,490.677 800.614,487.553 800.614,483.757L800.614,453.769C800.614,449.972 803.738,446.849 807.534,446.849C811.331,446.849 814.455,449.972 814.455,453.769L814.455,483.757C814.455,487.553 811.331,490.677 807.534,490.677Z" style="fill:rgb(63,61,86);fill-rule:nonzero;"/>
    </g>
    <g transform="matrix(1,0,0,1,-155.462,-220.31)">
        <path d="M813.602,419.484C812.475,421.935 810.013,423.512 807.315,423.512C806.317,423.512 805.33,423.296 804.423,422.878L777.18,410.344C774.733,409.215 773.158,406.755 773.158,404.061C773.158,400.264 776.282,397.14 780.079,397.14C781.075,397.14 782.059,397.355 782.965,397.771L810.208,410.305C812.658,411.432 814.236,413.894 814.236,416.592C814.236,417.59 814.019,418.577 813.602,419.484Z" style="fill:rgb(63,61,86);fill-rule:nonzero;"/>
    </g>
    <g transform="matrix(1,0,0,1,-155.462,-220.31)">
        <path d="M856.829,419.484C857.957,421.935 860.419,423.512 863.116,423.512C864.115,423.512 865.101,423.296 866.009,422.878L893.252,410.344C895.702,409.217 897.279,406.755 897.279,404.058C897.279,400.261 894.155,397.137 890.359,397.137C889.361,397.137 888.374,397.353 887.467,397.771L860.224,410.305C857.773,411.432 856.196,413.894 856.196,416.592C856.196,417.59 856.412,418.577 856.829,419.484Z" style="fill:rgb(63,61,86);fill-rule:nonzero;"/>
    </g>
    <g transform="matrix(1,0,0,1,-155.462,-220.31)">
        <path d="M862.897,490.677L862.897,490.677C866.693,490.677 869.817,487.553 869.817,483.757L869.817,453.769C869.817,449.972 866.693,446.849 862.897,446.849C859.1,446.849 855.977,449.972 855.977,453.769L855.977,483.757C855.977,487.553 859.1,490.677 862.897,490.677Z" style="fill:rgb(63,61,86);fill-rule:nonzero;"/>
    </g>
    <g transform="matrix(1,0,0,1,-155.462,-220.31)">
        <path d="M891.818,296.535C893.027,295.012 893.527,293.042 893.191,291.127L885.658,246.813C885.096,243.503 882.2,241.058 878.843,241.058C877.233,241.058 875.672,241.621 874.432,242.648L857.127,256.988L846.701,265.628C839.748,264.392 832.641,264.284 825.654,265.311L815.611,256.988L798.306,242.648C797.066,241.621 795.505,241.058 793.895,241.058C790.538,241.058 787.642,243.503 787.08,246.813L779.547,291.127C779.346,292.291 779.45,293.488 779.848,294.6C772.84,305.343 769.108,317.897 769.108,330.724C769.108,366.995 798.955,396.841 835.226,396.841C871.497,396.841 901.343,366.995 901.343,330.724C901.343,318.673 898.049,306.849 891.818,296.535L891.818,296.535Z" style="fill:rgb(63,61,86);fill-rule:nonzero;"/>
    </g>
    <g transform="matrix(1,0,0,1,-155.462,-220.31)">
        <path d="M796.572,251.728C796.161,251.728 795.754,251.802 795.37,251.946C794.22,252.364 793.383,253.374 793.185,254.581L788.618,281.451C788.586,281.64 788.57,281.832 788.57,282.024C788.57,283.902 790.115,285.447 791.992,285.447C792.399,285.447 792.802,285.374 793.183,285.233L818.736,275.754C820.075,275.257 820.968,273.973 820.968,272.545C820.968,271.527 820.513,270.56 819.729,269.91L819.729,269.909L798.744,252.52C798.135,252.01 797.366,251.729 796.572,251.728Z" style="fill:rgb(230,230,230);fill-rule:nonzero;"/>
    </g>
    <g transform="matrix(1,0,0,1,-155.462,-220.31)">
        <path d="M876.167,251.728C875.372,251.729 874.603,252.01 873.995,252.52L853.009,269.91C852.225,270.56 851.77,271.527 851.77,272.545C851.77,273.973 852.664,275.257 854.002,275.754L879.555,285.233C879.936,285.374 880.339,285.447 880.746,285.447C882.623,285.447 884.168,283.902 884.168,282.024C884.168,281.832 884.152,281.64 884.12,281.451L879.553,254.581C879.355,253.374 878.518,252.364 877.368,251.946C876.984,251.802 876.577,251.728 876.167,251.728Z" style="fill:rgb(230,230,230);fill-rule:nonzero;"/>
    </g>
    <circle cx="679.753" cy="119.658" r="9.227" style="fill:rgb(230,230,230);"/>
    <ellipse cx="679.753" cy="115.044" rx="6.151" ry="2.307" style="fill:rgb(63,61,86);"/>
    <path d="M675.14,125.04L683.598,125.04L683.598,135.421C683.598,137.741 681.689,139.65 679.369,139.65C677.049,139.65 675.14,137.741 675.14,135.421L675.14,125.04Z" style="fill:rgb(255,101,132);fill-rule:nonzero;"/>
    <g transform="matrix(1,0,0,1,-155.462,-220.31)">
        <path d="M835.729,240.69C835.286,241.61 834.855,242.539 834.45,243.488C829.678,254.616 828.069,266.848 829.799,278.832C830.665,277.576 831.575,276.267 832.5,274.944C830.518,263.443 831.633,251.618 835.729,240.69Z" style="fill:rgb(63,61,86);fill-rule:nonzero;"/>
    </g>
    <g transform="matrix(1,0,0,1,-155.462,-220.31)">
        <path d="M842.649,249.148C842.206,250.068 841.775,250.997 841.37,251.946C836.599,263.074 834.989,275.306 836.719,287.29C837.585,286.034 838.495,284.725 839.42,283.402C837.439,271.901 838.553,260.076 842.649,249.148Z" style="fill:rgb(63,61,86);fill-rule:nonzero;"/>
    </g>
    <g transform="matrix(1,0,0,1,-155.462,-220.31)">
        <path d="M863.985,415.199L863.01,402.801L862.035,390.403C861.88,388.423 860.208,386.877 858.222,386.877C857.448,386.877 856.693,387.112 856.055,387.55L845.806,394.593L838.321,399.737C837.354,398.604 835.936,397.95 834.447,397.95C832.957,397.95 831.54,398.604 830.572,399.737L823.088,394.593L812.838,387.55C812.2,387.112 811.445,386.877 810.671,386.877C808.686,386.877 807.014,388.423 806.858,390.403L805.883,402.801L804.908,415.199C804.9,415.299 804.896,415.399 804.896,415.499C804.896,417.597 806.623,419.324 808.722,419.324C809.292,419.324 809.854,419.197 810.369,418.951L821.593,413.597L830.816,409.197C831.774,410.168 833.083,410.715 834.447,410.715C835.811,410.715 837.119,410.168 838.077,409.197L847.3,413.597L858.525,418.951C859.039,419.197 859.602,419.324 860.172,419.324C862.27,419.324 863.997,417.597 863.997,415.499C863.997,415.399 863.993,415.299 863.985,415.199Z" style="fill:rgb(77,115,255);fill-rule:nonzero;"/>
    </g>
    <circle cx="667.451" cy="109.662" r="2.307" style="fill:rgb(230,230,230);"/>
    <circle cx="692.056" cy="109.662" r="2.307" style="fill:rgb(230,230,230);"/>
    <g transform="matrix(1,0,0,1,-155.462,-220.31)">
        <path d="M388.888,463.362C389.449,463.37 390.01,463.377 390.579,463.377C391.148,463.377 391.71,463.37 392.271,463.362C422.028,462.685 443.597,444.093 438.106,424.585L424.719,376.996L421.336,364.955L361.36,365.978L357.715,377.758L343.367,424.124C337.293,443.739 358.861,462.685 388.888,463.362Z" style="fill:rgb(63,61,86);fill-rule:nonzero;"/>
    </g>
    <g transform="matrix(1,0,0,1,-155.462,-220.31)">
        <path d="M357.715,377.758C378.512,389.645 404.199,389.353 424.72,376.996L421.336,364.955L361.36,365.978L357.715,377.758Z" style="fill-opacity:0.2;fill-rule:nonzero;"/>
    </g>
    <g transform="matrix(1,0,0,1,-155.462,-220.31)">
        <path d="M352.962,420.524C346.489,412.905 332.832,403.959 304.062,398.998C253.884,390.342 266.941,359.859 267.52,358.566C268.735,355.855 267.506,354.039 264.749,354.525C261.61,355.309 258.959,357.413 257.483,360.291C256.742,361.876 239.991,399.201 296.61,408.964C347.567,417.754 347.749,439.154 347.736,439.367C347.6,441.729 349.954,442.453 352.998,440.987C356.043,439.521 358.623,436.418 358.763,434.056C358.791,433.557 358.99,427.616 352.962,420.524Z" style="fill:rgb(63,61,86);fill-rule:nonzero;"/>
    </g>
    <g transform="matrix(1,0,0,1,-155.462,-220.31)">
        <path d="M418.26,470.298L418.261,470.298C422.057,470.298 425.181,467.174 425.181,463.378L425.181,433.389C425.176,429.596 422.054,426.477 418.261,426.477C414.467,426.477 411.345,429.596 411.34,433.389L411.34,463.378C411.34,467.174 414.464,470.298 418.26,470.298Z" style="fill:rgb(63,61,86);fill-rule:nonzero;"/>
    </g>
    <g transform="matrix(1,0,0,1,-155.462,-220.31)">
        <path d="M412.193,399.105C413.32,401.555 415.782,403.133 418.48,403.133C419.478,403.133 420.465,402.916 421.372,402.499L448.615,389.965C451.069,388.839 452.65,386.375 452.65,383.675C452.65,379.879 449.526,376.755 445.729,376.755C444.728,376.755 443.739,376.972 442.83,377.391L415.587,389.925C413.137,391.053 411.559,393.515 411.559,396.212C411.559,397.211 411.775,398.197 412.193,399.105Z" style="fill:rgb(63,61,86);fill-rule:nonzero;"/>
    </g>
    <g transform="matrix(1,0,0,1,-155.462,-220.31)">
        <path d="M368.966,399.105C367.838,401.555 365.376,403.133 362.679,403.133C361.68,403.133 360.693,402.916 359.786,402.499L332.543,389.965C330.089,388.839 328.509,386.375 328.509,383.675C328.509,379.879 331.633,376.755 335.429,376.755C336.43,376.755 337.419,376.972 338.328,377.391L365.571,389.925C368.022,391.053 369.599,393.515 369.599,396.212C369.599,397.211 369.383,398.197 368.966,399.105Z" style="fill:rgb(63,61,86);fill-rule:nonzero;"/>
    </g>
    <g transform="matrix(1,0,0,1,-155.462,-220.31)">
        <path d="M362.898,470.298L362.898,470.298C359.102,470.298 355.978,467.174 355.978,463.378L355.978,433.389C355.982,429.596 359.105,426.477 362.898,426.477C366.691,426.477 369.814,429.596 369.818,433.389L369.818,463.378C369.818,467.174 366.694,470.298 362.898,470.298Z" style="fill:rgb(63,61,86);fill-rule:nonzero;"/>
    </g>
    <g transform="matrix(1,0,0,1,-155.462,-220.31)">
        <path d="M445.947,274.221C446.345,273.108 446.449,271.911 446.248,270.747L438.715,226.433C438.153,223.124 435.257,220.679 431.9,220.679C430.29,220.679 428.729,221.241 427.489,222.269L410.184,236.609L400.141,244.931C393.154,243.905 386.047,244.012 379.094,245.248L368.668,236.609L351.363,222.269C350.123,221.241 348.562,220.678 346.952,220.678C343.595,220.678 340.699,223.124 340.136,226.433L336.37,248.59L332.604,270.747C332.268,272.662 332.768,274.633 333.977,276.155C327.734,286.479 324.433,298.316 324.433,310.38C324.433,346.662 354.288,376.517 390.57,376.517C426.852,376.517 456.707,346.662 456.707,310.38C456.707,297.539 452.967,284.972 445.947,274.221L445.947,274.221Z" style="fill:rgb(63,61,86);fill-rule:nonzero;"/>
    </g>
    <g transform="matrix(1,0,0,1,-155.462,-220.31)">
        <path d="M427.051,232.14L406.066,249.53L406.065,249.531C405.281,250.18 404.827,251.147 404.827,252.166C404.827,253.593 405.72,254.878 407.059,255.374L432.612,264.854C432.993,264.995 433.396,265.067 433.803,265.067C435.68,265.067 437.225,263.522 437.225,261.645C437.225,261.453 437.209,261.261 437.177,261.071L432.61,234.202C432.412,232.995 431.575,231.985 430.425,231.566C430.041,231.423 429.634,231.349 429.223,231.348C428.429,231.35 427.66,231.63 427.051,232.14Z" style="fill:rgb(230,230,230);fill-rule:nonzero;"/>
    </g>
    <g transform="matrix(1,0,0,1,-155.462,-220.31)">
        <path d="M348.427,231.566C347.277,231.985 346.44,232.995 346.242,234.202L341.675,261.071C341.643,261.261 341.626,261.453 341.626,261.645C341.626,263.522 343.171,265.067 345.049,265.067C345.455,265.067 345.859,264.995 346.24,264.854L371.793,255.374C373.131,254.878 374.025,253.593 374.025,252.166C374.025,251.147 373.57,250.18 372.786,249.531L351.8,232.14C351.192,231.63 350.423,231.35 349.628,231.348C349.218,231.349 348.811,231.423 348.427,231.566Z" style="fill:rgb(230,230,230);fill-rule:nonzero;"/>
    </g>
    <circle cx="235.117" cy="99.278" r="9.227" style="fill:rgb(230,230,230);"/>
    <ellipse cx="235.117" cy="94.665" rx="6.151" ry="2.307" style="fill:rgb(63,61,86);"/>
    <g transform="matrix(-1,7.65714e-16,-7.65714e-16,-1,626.465,444.241)">
        <path d="M390.964,324.971C390.964,324.971 390.964,324.971 390.964,324.971C393.284,324.971 395.193,326.88 395.193,329.2L395.193,339.58L386.735,339.58L386.735,329.2C386.735,326.88 388.644,324.971 390.964,324.971Z" style="fill:rgb(255,101,132);fill-rule:nonzero;"/>
    </g>
    <g transform="matrix(1,0,0,1,-155.462,-220.31)">
        <path d="M390.066,220.31C390.509,221.23 390.94,222.16 391.345,223.108C396.117,234.237 397.726,246.469 395.996,258.452C395.13,257.196 394.22,255.888 393.295,254.565C395.277,243.063 394.162,231.239 390.066,220.31Z" style="fill:rgb(63,61,86);fill-rule:nonzero;"/>
    </g>
    <g transform="matrix(1,0,0,1,-155.462,-220.31)">
        <path d="M383.146,228.768C383.589,229.688 384.02,230.618 384.425,231.567C389.196,242.695 390.806,254.927 389.076,266.91C388.21,265.654 387.3,264.346 386.375,263.023C388.356,251.521 387.242,239.697 383.146,228.768Z" style="fill:rgb(63,61,86);fill-rule:nonzero;"/>
    </g>
    <g transform="matrix(1,0,0,1,-155.462,-220.31)">
        <path d="M361.81,260.258L362.785,247.86L363.759,235.461C363.915,233.482 365.587,231.936 367.573,231.936C368.346,231.936 369.102,232.171 369.739,232.609L379.989,239.652L387.474,244.795C388.441,243.662 389.858,243.009 391.348,243.009C392.838,243.009 394.255,243.662 395.223,244.795L402.707,239.652L412.957,232.609C413.594,232.171 414.35,231.936 415.123,231.936C417.109,231.936 418.781,233.482 418.937,235.461L419.912,247.86L420.887,260.258C420.895,260.357 420.899,260.457 420.899,260.557C420.899,262.656 419.172,264.383 417.073,264.383C416.503,264.383 415.941,264.255 415.426,264.01L404.202,258.655L394.979,254.255C394.021,255.226 392.712,255.773 391.348,255.773C389.984,255.773 388.676,255.226 387.717,254.255L378.495,258.655L367.27,264.01C366.756,264.255 366.193,264.383 365.623,264.383C363.525,264.383 361.798,262.656 361.798,260.557C361.798,260.457 361.802,260.357 361.81,260.258Z" style="fill:rgb(77,115,255);fill-rule:nonzero;"/>
    </g>
    <g transform="matrix(1,0,0,1,-155.462,-220.31)">
        <path d="M400.575,309.592C400.575,310.866 401.608,309.592 402.882,309.592C404.156,309.592 405.189,310.866 405.189,309.592C405.186,308.329 404.146,307.29 402.882,307.29C401.618,307.29 400.578,308.329 400.575,309.592Z" style="fill:rgb(230,230,230);fill-rule:nonzero;"/>
    </g>
    <g transform="matrix(1,0,0,1,-155.462,-220.31)">
        <path d="M380.583,309.592C380.583,310.866 379.55,309.592 378.276,309.592C377.002,309.592 375.97,310.866 375.97,309.592C375.972,308.329 377.013,307.29 378.276,307.29C379.54,307.29 380.581,308.329 380.583,309.592Z" style="fill:rgb(230,230,230);fill-rule:nonzero;"/>
    </g>
    <path d="M481.05,263.451L481.05,248.788L407.736,248.788L407.736,396.333L481.05,396.333L481.05,381.67L422.399,381.67L422.399,263.451L481.05,263.451Z" style="fill:rgb(63,61,86);fill-rule:nonzero;"/>
    <g transform="matrix(1,0,0,1,-155.462,-220.31)">
        <path d="M672.253,469.099L672.253,616.643L745.567,616.643L745.567,469.099L672.253,469.099ZM730.904,601.98L686.916,601.98L686.916,483.761L730.904,483.761L730.904,601.98Z" style="fill:rgb(77,115,255);fill-rule:nonzero;"/>
    </g>
    <path d="M313.344,381.67L313.344,249.705L298.681,249.705L298.681,396.333L371.995,396.333L371.995,381.67L313.344,381.67Z" style="fill:rgb(77,115,255);fill-rule:nonzero;"/>
    <path d="M265.69,263.451L265.69,248.788L192.376,248.788L192.376,396.333L265.69,396.333L265.69,381.67L207.039,381.67L207.039,329.434L265.69,329.434L265.69,314.771L207.039,314.771L207.039,263.451L265.69,263.451Z" style="fill:rgb(63,61,86);fill-rule:nonzero;"/>
    <path d="M839.372,263.451L839.372,248.788L766.058,248.788L766.058,396.333L839.372,396.333L839.372,381.67L780.721,381.67L780.721,329.434L839.372,329.434L839.372,314.771L780.721,314.771L780.721,263.451L839.372,263.451Z" style="fill:rgb(77,115,255);fill-rule:nonzero;"/>
    <path d="M142.889,249.705L142.889,370.89L104.228,332.23L104.14,332.319L104.058,332.237L64.535,371.76L64.535,249.247L49.872,249.247L49.872,395.875L64.535,395.875L64.535,392.496L104.147,352.884L142.889,391.627L142.889,396.333L157.552,396.333L157.552,249.705L142.889,249.705Z" style="fill:rgb(63,61,86);fill-rule:nonzero;"/>
    <path d="M717.488,249.705L717.488,253.083L677.876,292.695L639.133,253.953L639.133,249.247L624.47,249.247L624.47,395.875L639.133,395.875L639.133,274.689L677.794,313.35L677.883,313.261L677.964,313.342L717.488,273.819L717.488,396.333L732.15,396.333L732.15,249.705L717.488,249.705Z" style="fill:rgb(63,61,86);fill-rule:nonzero;"/>
    <circle cx="335.076" cy="150.38" r="9" style="fill:rgb(77,115,255);"/>
    <circle cx="113.076" cy="250.38" r="9" style="fill:rgb(77,115,255);"/>
    <circle cx="291.076" cy="450.38" r="9" style="fill:rgb(77,115,255);"/>
    <circle cx="517.076" cy="177.38" r="9" style="fill:rgb(77,115,255);"/>
    <circle cx="782.076" cy="442.38" r="9" style="fill:rgb(77,115,255);"/>
    <circle cx="791.076" cy="206.38" r="9" style="fill:rgb(77,115,255);"/>
    <circle cx="677.076" cy="368.38" r="9" style="fill:rgb(77,115,255);"/>
</svg>
